# xmcd
#
# Track frame offsets:
#	150
#	24541
#	48648
#	68285
#	90091
#	110650
#	121681
#	146371
#	165213
#	186707
#
# Disc length: 2813 seconds
# Revision: 0
# Processed by: cddbd v1.5.2PL0 Copyright (c) Steve Scherf et al.
# Submitted via: dBpowerAMP V12.0
#
DISCID=770afb0a
DTITLE=Backtrack Blues Band - Way Back Home
DYEAR=2016
DGENRE=Blues
TTITLE0=Goin' To Eleuthera
TTITLE1=Tell Your Daddy
TTITLE2=Shoot My Rooster
TTITLE3=Your Funeral, My Trial
TTITLE4=Checkin' On My Baby
TTITLE5=Nobody But You
TTITLE6=Heavy Built Woman
TTITLE7=Baby Please Don't Go
TTITLE8=Rich Man Blues
TTITLE9=Help Me Just This Time
EXTD=
EXTT0=
EXTT1=
EXTT2=
EXTT3=
EXTT4=
EXTT5=
EXTT6=
EXTT7=
EXTT8=
EXTT9=
PLAYORDER=
